<svg width="294" height="67" viewBox="0 0 294 67" fill="none" xmlns="http://www.w3.org/2000/svg">
<path d="M6.88 50.0773C8.21333 50.0773 9.29333 50.484 10.12 51.2973C10.9467 52.0973 11.36 53.2573 11.36 54.7773V61.2373H9.56V55.0373C9.56 53.944 9.28667 53.1106 8.74 52.5373C8.19333 51.9506 7.44667 51.6573 6.5 51.6573C5.54 51.6573 4.77333 51.9573 4.2 52.5573C3.64 53.1573 3.36 54.0306 3.36 55.1773V61.2373H1.54V50.2773H3.36V51.8373C3.72 51.2773 4.20667 50.844 4.82 50.5373C5.44667 50.2306 6.13333 50.0773 6.88 50.0773ZM13.653 55.7173C13.653 54.5973 13.8796 53.6173 14.333 52.7773C14.7863 51.924 15.4063 51.264 16.193 50.7973C16.993 50.3306 17.8796 50.0973 18.853 50.0973C19.813 50.0973 20.6463 50.304 21.353 50.7173C22.0596 51.1306 22.5863 51.6506 22.933 52.2773V50.2773H24.773V61.2373H22.933V59.1973C22.573 59.8373 22.033 60.3706 21.313 60.7973C20.6063 61.2106 19.7796 61.4173 18.833 61.4173C17.8596 61.4173 16.9796 61.1773 16.193 60.6973C15.4063 60.2173 14.7863 59.544 14.333 58.6773C13.8796 57.8106 13.653 56.824 13.653 55.7173ZM22.933 55.7373C22.933 54.9106 22.7663 54.1906 22.433 53.5773C22.0996 52.964 21.6463 52.4973 21.073 52.1773C20.513 51.844 19.893 51.6773 19.213 51.6773C18.533 51.6773 17.913 51.8373 17.353 52.1573C16.793 52.4773 16.3463 52.944 16.013 53.5573C15.6796 54.1706 15.513 54.8906 15.513 55.7173C15.513 56.5573 15.6796 57.2906 16.013 57.9173C16.3463 58.5306 16.793 59.004 17.353 59.3373C17.913 59.6573 18.533 59.8173 19.213 59.8173C19.893 59.8173 20.513 59.6573 21.073 59.3373C21.6463 59.004 22.0996 58.5306 22.433 57.9173C22.7663 57.2906 22.933 56.564 22.933 55.7373ZM28.7886 48.4973C28.4419 48.4973 28.1486 48.3773 27.9086 48.1373C27.6686 47.8973 27.5486 47.604 27.5486 47.2573C27.5486 46.9106 27.6686 46.6173 27.9086 46.3773C28.1486 46.1373 28.4419 46.0173 28.7886 46.0173C29.1219 46.0173 29.4019 46.1373 29.6286 46.3773C29.8686 46.6173 29.9886 46.9106 29.9886 47.2573C29.9886 47.604 29.8686 47.8973 29.6286 48.1373C29.4019 48.3773 29.1219 48.4973 28.7886 48.4973ZM29.6686 50.2773V61.2373H27.8486V50.2773H29.6686ZM34.5905 46.4373V61.2373H32.7705V46.4373H34.5905ZM42.3444 55.7173C42.3444 54.5973 42.571 53.6173 43.0244 52.7773C43.4777 51.924 44.0977 51.264 44.8844 50.7973C45.6844 50.3306 46.571 50.0973 47.5444 50.0973C48.5044 50.0973 49.3377 50.304 50.0444 50.7173C50.751 51.1306 51.2777 51.6506 51.6244 52.2773V50.2773H53.4644V61.2373H51.6244V59.1973C51.2644 59.8373 50.7244 60.3706 50.0044 60.7973C49.2977 61.2106 48.471 61.4173 47.5244 61.4173C46.551 61.4173 45.671 61.1773 44.8844 60.6973C44.0977 60.2173 43.4777 59.544 43.0244 58.6773C42.571 57.8106 42.3444 56.824 42.3444 55.7173ZM51.6244 55.7373C51.6244 54.9106 51.4577 54.1906 51.1244 53.5773C50.791 52.964 50.3377 52.4973 49.7644 52.1773C49.2044 51.844 48.5844 51.6773 47.9044 51.6773C47.2244 51.6773 46.6044 51.8373 46.0444 52.1573C45.4844 52.4773 45.0377 52.944 44.7044 53.5573C44.371 54.1706 44.2044 54.8906 44.2044 55.7173C44.2044 56.5573 44.371 57.2906 44.7044 57.9173C45.0377 58.5306 45.4844 59.004 46.0444 59.3373C46.6044 59.6573 47.2244 59.8173 47.9044 59.8173C48.5844 59.8173 49.2044 59.6573 49.7644 59.3373C50.3377 59.004 50.791 58.5306 51.1244 57.9173C51.4577 57.2906 51.6244 56.564 51.6244 55.7373ZM58.36 52.0573C58.68 51.4306 59.1333 50.944 59.72 50.5973C60.32 50.2506 61.0467 50.0773 61.9 50.0773V51.9573H61.42C59.38 51.9573 58.36 53.064 58.36 55.2773V61.2373H56.54V50.2773H58.36V52.0573ZM66.2209 51.7773V58.2373C66.2209 58.7706 66.3343 59.1506 66.5609 59.3773C66.7876 59.5906 67.1809 59.6973 67.7409 59.6973H69.0809V61.2373H67.4409C66.4276 61.2373 65.6676 61.004 65.1609 60.5373C64.6543 60.0706 64.4009 59.304 64.4009 58.2373V51.7773H62.9809V50.2773H64.4009V47.5173H66.2209V50.2773H69.0809V51.7773H66.2209Z" fill="#FFFAFD"/>
<path d="M80.0182 57.2476C81.6851 57.2476 83.0364 55.8999 83.0364 54.2373C83.0364 52.5748 81.6851 51.227 80.0182 51.227C78.3513 51.227 77 52.5748 77 54.2373C77 55.8999 78.3513 57.2476 80.0182 57.2476Z" fill="#FFFAFD"/>
<path d="M95.4564 61.4173C94.6164 61.4173 93.863 61.2773 93.1964 60.9973C92.5297 60.704 92.003 60.304 91.6164 59.7973C91.2297 59.2773 91.0164 58.684 90.9764 58.0173H92.8564C92.9097 58.564 93.163 59.0106 93.6164 59.3573C94.083 59.704 94.6897 59.8773 95.4364 59.8773C96.1297 59.8773 96.6764 59.724 97.0764 59.4173C97.4764 59.1106 97.6764 58.724 97.6764 58.2573C97.6764 57.7773 97.463 57.424 97.0364 57.1973C96.6097 56.9573 95.9497 56.724 95.0564 56.4973C94.243 56.284 93.5764 56.0706 93.0564 55.8573C92.5497 55.6306 92.1097 55.304 91.7364 54.8773C91.3764 54.4373 91.1964 53.864 91.1964 53.1573C91.1964 52.5973 91.363 52.084 91.6964 51.6173C92.0297 51.1506 92.503 50.784 93.1164 50.5173C93.7297 50.2373 94.4297 50.0973 95.2164 50.0973C96.4297 50.0973 97.4097 50.404 98.1564 51.0173C98.903 51.6306 99.303 52.4706 99.3564 53.5373H97.5364C97.4964 52.964 97.263 52.504 96.8364 52.1573C96.423 51.8106 95.863 51.6373 95.1564 51.6373C94.503 51.6373 93.983 51.7773 93.5964 52.0573C93.2097 52.3373 93.0164 52.704 93.0164 53.1573C93.0164 53.5173 93.1297 53.8173 93.3564 54.0573C93.5964 54.284 93.8897 54.4706 94.2364 54.6173C94.5964 54.7506 95.0897 54.904 95.7164 55.0773C96.503 55.2906 97.143 55.504 97.6364 55.7173C98.1297 55.9173 98.5497 56.224 98.8964 56.6373C99.2564 57.0506 99.443 57.5906 99.4564 58.2573C99.4564 58.8573 99.2897 59.3973 98.9564 59.8773C98.623 60.3573 98.1497 60.7373 97.5364 61.0173C96.9364 61.284 96.243 61.4173 95.4564 61.4173ZM108.146 61.2373L103.846 56.3973V61.2373H102.026V46.4373H103.846V55.1373L108.066 50.2773H110.606L105.446 55.7373L110.626 61.2373H108.146ZM113.259 48.4973C112.912 48.4973 112.619 48.3773 112.379 48.1373C112.139 47.8973 112.019 47.604 112.019 47.2573C112.019 46.9106 112.139 46.6173 112.379 46.3773C112.619 46.1373 112.912 46.0173 113.259 46.0173C113.592 46.0173 113.872 46.1373 114.099 46.3773C114.339 46.6173 114.459 46.9106 114.459 47.2573C114.459 47.604 114.339 47.8973 114.099 48.1373C113.872 48.3773 113.592 48.4973 113.259 48.4973ZM114.139 50.2773V61.2373H112.319V50.2773H114.139ZM122.58 50.0773C123.914 50.0773 124.994 50.484 125.82 51.2973C126.647 52.0973 127.06 53.2573 127.06 54.7773V61.2373H125.26V55.0373C125.26 53.944 124.987 53.1106 124.44 52.5373C123.894 51.9506 123.147 51.6573 122.2 51.6573C121.24 51.6573 120.474 51.9573 119.9 52.5573C119.34 53.1573 119.06 54.0306 119.06 55.1773V61.2373H117.24V50.2773H119.06V51.8373C119.42 51.2773 119.907 50.844 120.52 50.5373C121.147 50.2306 121.834 50.0773 122.58 50.0773ZM129.353 55.7373C129.353 54.604 129.58 53.6173 130.033 52.7773C130.487 51.924 131.113 51.264 131.913 50.7973C132.727 50.3306 133.653 50.0973 134.693 50.0973C136.04 50.0973 137.147 50.424 138.013 51.0773C138.893 51.7306 139.473 52.6373 139.753 53.7973H137.793C137.607 53.1306 137.24 52.604 136.693 52.2173C136.16 51.8306 135.493 51.6373 134.693 51.6373C133.653 51.6373 132.813 51.9973 132.173 52.7173C131.533 53.424 131.213 54.4306 131.213 55.7373C131.213 57.0573 131.533 58.0773 132.173 58.7973C132.813 59.5173 133.653 59.8773 134.693 59.8773C135.493 59.8773 136.16 59.6906 136.693 59.3173C137.227 58.944 137.593 58.4106 137.793 57.7173H139.753C139.46 58.8373 138.873 59.7373 137.993 60.4173C137.113 61.084 136.013 61.4173 134.693 61.4173C133.653 61.4173 132.727 61.184 131.913 60.7173C131.113 60.2506 130.487 59.5906 130.033 58.7373C129.58 57.884 129.353 56.884 129.353 55.7373ZM141.502 55.7173C141.502 54.5973 141.729 53.6173 142.182 52.7773C142.635 51.924 143.255 51.264 144.042 50.7973C144.842 50.3306 145.729 50.0973 146.702 50.0973C147.662 50.0973 148.495 50.304 149.202 50.7173C149.909 51.1306 150.435 51.6506 150.782 52.2773V50.2773H152.622V61.2373H150.782V59.1973C150.422 59.8373 149.882 60.3706 149.162 60.7973C148.455 61.2106 147.629 61.4173 146.682 61.4173C145.709 61.4173 144.829 61.1773 144.042 60.6973C143.255 60.2173 142.635 59.544 142.182 58.6773C141.729 57.8106 141.502 56.824 141.502 55.7173ZM150.782 55.7373C150.782 54.9106 150.615 54.1906 150.282 53.5773C149.949 52.964 149.495 52.4973 148.922 52.1773C148.362 51.844 147.742 51.6773 147.062 51.6773C146.382 51.6773 145.762 51.8373 145.202 52.1573C144.642 52.4773 144.195 52.944 143.862 53.5573C143.529 54.1706 143.362 54.8906 143.362 55.7173C143.362 56.5573 143.529 57.2906 143.862 57.9173C144.195 58.5306 144.642 59.004 145.202 59.3373C145.762 59.6573 146.382 59.8173 147.062 59.8173C147.742 59.8173 148.362 59.6573 148.922 59.3373C149.495 59.004 149.949 58.5306 150.282 57.9173C150.615 57.2906 150.782 56.564 150.782 55.7373ZM157.517 52.0573C157.837 51.4306 158.291 50.944 158.877 50.5973C159.477 50.2506 160.204 50.0773 161.057 50.0773V51.9573H160.577C158.537 51.9573 157.517 53.064 157.517 55.2773V61.2373H155.697V50.2773H157.517V52.0573ZM173.158 55.3373C173.158 55.684 173.138 56.0506 173.098 56.4373H164.338C164.405 57.5173 164.772 58.364 165.438 58.9773C166.118 59.5773 166.938 59.8773 167.898 59.8773C168.685 59.8773 169.338 59.6973 169.858 59.3373C170.392 58.964 170.765 58.4706 170.978 57.8573H172.938C172.645 58.9106 172.058 59.7706 171.178 60.4373C170.298 61.0906 169.205 61.4173 167.898 61.4173C166.858 61.4173 165.925 61.184 165.098 60.7173C164.285 60.2506 163.645 59.5906 163.178 58.7373C162.712 57.8706 162.478 56.8706 162.478 55.7373C162.478 54.604 162.705 53.6106 163.158 52.7573C163.612 51.904 164.245 51.2506 165.058 50.7973C165.885 50.3306 166.832 50.0973 167.898 50.0973C168.938 50.0973 169.858 50.324 170.658 50.7773C171.458 51.2306 172.072 51.8573 172.498 52.6573C172.938 53.444 173.158 54.3373 173.158 55.3373ZM171.278 54.9573C171.278 54.264 171.125 53.6706 170.818 53.1773C170.512 52.6706 170.092 52.2906 169.558 52.0373C169.038 51.7706 168.458 51.6373 167.818 51.6373C166.898 51.6373 166.112 51.9306 165.458 52.5173C164.818 53.104 164.452 53.9173 164.358 54.9573H171.278Z" fill="#FFFAFD"/>
<path d="M184.055 57.2476C185.721 57.2476 187.073 55.8999 187.073 54.2373C187.073 52.5748 185.721 51.227 184.055 51.227C182.388 51.227 181.036 52.5748 181.036 54.2373C181.036 55.8999 182.388 57.2476 184.055 57.2476Z" fill="#FFFAFD"/>
<path d="M205.613 55.3373C205.613 55.684 205.593 56.0506 205.553 56.4373H196.793C196.859 57.5173 197.226 58.364 197.893 58.9773C198.573 59.5773 199.393 59.8773 200.353 59.8773C201.139 59.8773 201.793 59.6973 202.313 59.3373C202.846 58.964 203.219 58.4706 203.433 57.8573H205.393C205.099 58.9106 204.513 59.7706 203.633 60.4373C202.753 61.0906 201.659 61.4173 200.353 61.4173C199.313 61.4173 198.379 61.184 197.553 60.7173C196.739 60.2506 196.099 59.5906 195.633 58.7373C195.166 57.8706 194.933 56.8706 194.933 55.7373C194.933 54.604 195.159 53.6106 195.613 52.7573C196.066 51.904 196.699 51.2506 197.513 50.7973C198.339 50.3306 199.286 50.0973 200.353 50.0973C201.393 50.0973 202.313 50.324 203.113 50.7773C203.913 51.2306 204.526 51.8573 204.953 52.6573C205.393 53.444 205.613 54.3373 205.613 55.3373ZM203.733 54.9573C203.733 54.264 203.579 53.6706 203.273 53.1773C202.966 52.6706 202.546 52.2906 202.013 52.0373C201.493 51.7706 200.913 51.6373 200.273 51.6373C199.353 51.6373 198.566 51.9306 197.913 52.5173C197.273 53.104 196.906 53.9173 196.813 54.9573H203.733ZM217.455 50.2773L210.855 66.3973H208.975L211.135 61.1173L206.715 50.2773H208.735L212.175 59.1573L215.575 50.2773H217.455ZM229.285 55.3373C229.285 55.684 229.265 56.0506 229.225 56.4373H220.465C220.531 57.5173 220.898 58.364 221.565 58.9773C222.245 59.5773 223.065 59.8773 224.025 59.8773C224.811 59.8773 225.465 59.6973 225.985 59.3373C226.518 58.964 226.891 58.4706 227.105 57.8573H229.065C228.771 58.9106 228.185 59.7706 227.305 60.4373C226.425 61.0906 225.331 61.4173 224.025 61.4173C222.985 61.4173 222.051 61.184 221.225 60.7173C220.411 60.2506 219.771 59.5906 219.305 58.7373C218.838 57.8706 218.605 56.8706 218.605 55.7373C218.605 54.604 218.831 53.6106 219.285 52.7573C219.738 51.904 220.371 51.2506 221.185 50.7973C222.011 50.3306 222.958 50.0973 224.025 50.0973C225.065 50.0973 225.985 50.324 226.785 50.7773C227.585 51.2306 228.198 51.8573 228.625 52.6573C229.065 53.444 229.285 54.3373 229.285 55.3373ZM227.405 54.9573C227.405 54.264 227.251 53.6706 226.945 53.1773C226.638 52.6706 226.218 52.2906 225.685 52.0373C225.165 51.7706 224.585 51.6373 223.945 51.6373C223.025 51.6373 222.238 51.9306 221.585 52.5173C220.945 53.104 220.578 53.9173 220.485 54.9573H227.405ZM233.507 46.4373V61.2373H231.687V46.4373H233.507ZM235.929 55.7173C235.929 54.5973 236.156 53.6173 236.609 52.7773C237.062 51.924 237.682 51.264 238.469 50.7973C239.269 50.3306 240.156 50.0973 241.129 50.0973C242.089 50.0973 242.922 50.304 243.629 50.7173C244.336 51.1306 244.862 51.6506 245.209 52.2773V50.2773H247.049V61.2373H245.209V59.1973C244.849 59.8373 244.309 60.3706 243.589 60.7973C242.882 61.2106 242.056 61.4173 241.109 61.4173C240.136 61.4173 239.256 61.1773 238.469 60.6973C237.682 60.2173 237.062 59.544 236.609 58.6773C236.156 57.8106 235.929 56.824 235.929 55.7173ZM245.209 55.7373C245.209 54.9106 245.042 54.1906 244.709 53.5773C244.376 52.964 243.922 52.4973 243.349 52.1773C242.789 51.844 242.169 51.6773 241.489 51.6773C240.809 51.6773 240.189 51.8373 239.629 52.1573C239.069 52.4773 238.622 52.944 238.289 53.5573C237.956 54.1706 237.789 54.8906 237.789 55.7173C237.789 56.5573 237.956 57.2906 238.289 57.9173C238.622 58.5306 239.069 59.004 239.629 59.3373C240.189 59.6573 240.809 59.8173 241.489 59.8173C242.169 59.8173 242.789 59.6573 243.349 59.3373C243.922 59.004 244.376 58.5306 244.709 57.9173C245.042 57.2906 245.209 56.564 245.209 55.7373ZM254.004 61.4173C253.164 61.4173 252.411 61.2773 251.744 60.9973C251.078 60.704 250.551 60.304 250.164 59.7973C249.778 59.2773 249.564 58.684 249.524 58.0173H251.404C251.458 58.564 251.711 59.0106 252.164 59.3573C252.631 59.704 253.238 59.8773 253.984 59.8773C254.678 59.8773 255.224 59.724 255.624 59.4173C256.024 59.1106 256.224 58.724 256.224 58.2573C256.224 57.7773 256.011 57.424 255.584 57.1973C255.158 56.9573 254.498 56.724 253.604 56.4973C252.791 56.284 252.124 56.0706 251.604 55.8573C251.098 55.6306 250.658 55.304 250.284 54.8773C249.924 54.4373 249.744 53.864 249.744 53.1573C249.744 52.5973 249.911 52.084 250.244 51.6173C250.578 51.1506 251.051 50.784 251.664 50.5173C252.278 50.2373 252.978 50.0973 253.764 50.0973C254.978 50.0973 255.958 50.404 256.704 51.0173C257.451 51.6306 257.851 52.4706 257.904 53.5373H256.084C256.044 52.964 255.811 52.504 255.384 52.1573C254.971 51.8106 254.411 51.6373 253.704 51.6373C253.051 51.6373 252.531 51.7773 252.144 52.0573C251.758 52.3373 251.564 52.704 251.564 53.1573C251.564 53.5173 251.678 53.8173 251.904 54.0573C252.144 54.284 252.438 54.4706 252.784 54.6173C253.144 54.7506 253.638 54.904 254.264 55.0773C255.051 55.2906 255.691 55.504 256.184 55.7173C256.678 55.9173 257.098 56.224 257.444 56.6373C257.804 57.0506 257.991 57.5906 258.004 58.2573C258.004 58.8573 257.838 59.3973 257.504 59.8773C257.171 60.3573 256.698 60.7373 256.084 61.0173C255.484 61.284 254.791 61.4173 254.004 61.4173ZM266.014 50.0773C266.84 50.0773 267.587 50.2573 268.254 50.6173C268.92 50.964 269.44 51.4906 269.814 52.1973C270.2 52.904 270.394 53.764 270.394 54.7773V61.2373H268.594V55.0373C268.594 53.944 268.32 53.1106 267.774 52.5373C267.227 51.9506 266.48 51.6573 265.534 51.6573C264.574 51.6573 263.807 51.9573 263.234 52.5573C262.674 53.1573 262.394 54.0306 262.394 55.1773V61.2373H260.574V46.4373H262.394V51.8373C262.754 51.2773 263.247 50.844 263.874 50.5373C264.514 50.2306 265.227 50.0773 266.014 50.0773ZM283.367 55.3373C283.367 55.684 283.347 56.0506 283.307 56.4373H274.547C274.613 57.5173 274.98 58.364 275.647 58.9773C276.327 59.5773 277.147 59.8773 278.107 59.8773C278.893 59.8773 279.547 59.6973 280.067 59.3373C280.6 58.964 280.973 58.4706 281.187 57.8573H283.147C282.853 58.9106 282.267 59.7706 281.387 60.4373C280.507 61.0906 279.413 61.4173 278.107 61.4173C277.067 61.4173 276.133 61.184 275.307 60.7173C274.493 60.2506 273.853 59.5906 273.387 58.7373C272.92 57.8706 272.687 56.8706 272.687 55.7373C272.687 54.604 272.913 53.6106 273.367 52.7573C273.82 51.904 274.453 51.2506 275.267 50.7973C276.093 50.3306 277.04 50.0973 278.107 50.0973C279.147 50.0973 280.067 50.324 280.867 50.7773C281.667 51.2306 282.28 51.8573 282.707 52.6573C283.147 53.444 283.367 54.3373 283.367 55.3373ZM281.487 54.9573C281.487 54.264 281.333 53.6706 281.027 53.1773C280.72 52.6706 280.3 52.2906 279.767 52.0373C279.247 51.7706 278.667 51.6373 278.027 51.6373C277.107 51.6373 276.32 51.9306 275.667 52.5173C275.027 53.104 274.66 53.9173 274.567 54.9573H281.487ZM289.649 61.4173C288.809 61.4173 288.056 61.2773 287.389 60.9973C286.722 60.704 286.196 60.304 285.809 59.7973C285.422 59.2773 285.209 58.684 285.169 58.0173H287.049C287.102 58.564 287.356 59.0106 287.809 59.3573C288.276 59.704 288.882 59.8773 289.629 59.8773C290.322 59.8773 290.869 59.724 291.269 59.4173C291.669 59.1106 291.869 58.724 291.869 58.2573C291.869 57.7773 291.656 57.424 291.229 57.1973C290.802 56.9573 290.142 56.724 289.249 56.4973C288.436 56.284 287.769 56.0706 287.249 55.8573C286.742 55.6306 286.302 55.304 285.929 54.8773C285.569 54.4373 285.389 53.864 285.389 53.1573C285.389 52.5973 285.556 52.084 285.889 51.6173C286.222 51.1506 286.696 50.784 287.309 50.5173C287.922 50.2373 288.622 50.0973 289.409 50.0973C290.622 50.0973 291.602 50.404 292.349 51.0173C293.096 51.6306 293.496 52.4706 293.549 53.5373H291.729C291.689 52.964 291.456 52.504 291.029 52.1573C290.616 51.8106 290.056 51.6373 289.349 51.6373C288.696 51.6373 288.176 51.7773 287.789 52.0573C287.402 52.3373 287.209 52.704 287.209 53.1573C287.209 53.5173 287.322 53.8173 287.549 54.0573C287.789 54.284 288.082 54.4706 288.429 54.6173C288.789 54.7506 289.282 54.904 289.909 55.0773C290.696 55.2906 291.336 55.504 291.829 55.7173C292.322 55.9173 292.742 56.224 293.089 56.6373C293.449 57.0506 293.636 57.5906 293.649 58.2573C293.649 58.8573 293.482 59.3973 293.149 59.8773C292.816 60.3573 292.342 60.7373 291.729 61.0173C291.129 61.284 290.436 61.4173 289.649 61.4173Z" fill="#FFFAFD"/>
<path d="M197.009 37.4017C197.977 37.4017 198.763 36.6174 198.763 35.65C198.763 34.6826 197.977 33.8983 197.009 33.8983C196.04 33.8983 195.254 34.6826 195.254 35.65C195.254 36.6174 196.04 37.4017 197.009 37.4017Z" fill="#FFFAFD"/>
<path d="M162.597 10.5224V36.7823H159.939V10.5224H162.597ZM184.694 34.1559H187.347L190.001 36.7823H184.694C182.951 36.7868 181.225 36.4505 179.615 35.7927C178.004 35.1349 176.541 34.1686 175.309 32.9493C174.077 31.7299 173.101 30.2817 172.436 28.6877C171.771 27.0937 171.432 25.3854 171.436 23.661V0.0189209H174.09V10.5224H187.347V13.1489H174.09V23.6524C174.088 25.0315 174.361 26.3976 174.893 27.6723C175.425 28.9469 176.206 30.1052 177.191 31.0809C178.176 32.0565 179.345 32.8303 180.633 33.3579C181.92 33.8856 183.3 34.1567 184.694 34.1559V34.1559Z" fill="#FFFAFD"/>
<path d="M162.597 10.9531H163.049V10.5035H162.597V10.9531ZM162.597 37.2129V37.6625H163.049V37.2129H162.597ZM159.944 37.2129H159.492V37.6625H159.939L159.944 37.2129ZM159.944 10.9531V10.5035H159.492V10.9531H159.944ZM162.143 10.9531V37.2129H163.049V10.9531H162.143ZM162.597 36.7655H159.939V37.6625H162.593L162.597 36.7655ZM160.396 37.2129V10.9531H159.492V37.2129H160.396ZM159.944 11.4005H162.597V10.5035H159.939L159.944 11.4005ZM187.347 34.5865L187.667 34.2703L187.534 34.1391H187.347V34.5865ZM190.001 37.2129V37.6625H191.088L190.314 36.8967L190.001 37.2129ZM175.301 33.3798L174.979 33.696L175.301 33.3798ZM171.428 0.449566V0H170.973V0.449566H171.428ZM174.081 0.449566H174.533V0H174.081V0.449566ZM174.081 10.9531H173.631V11.4005H174.086L174.081 10.9531ZM187.339 10.9531H187.791V10.5035H187.339V10.9531ZM187.339 13.5795V14.0269H187.791V13.5795H187.339ZM174.081 13.5795V13.1299H173.631V13.5795H174.081ZM184.694 35.0361H187.347V34.1391H184.694V35.0361ZM187.028 34.9049L189.679 37.5291L190.321 36.8967L187.667 34.2703L187.028 34.9049ZM190.001 36.7655H184.694V37.6625H190.001V36.7655ZM184.694 36.7655C183.006 36.7917 181.331 36.4767 179.771 35.8398C178.211 35.2029 176.798 34.2575 175.62 33.0614L174.981 33.7068C176.244 34.984 177.756 35.9934 179.426 36.6735C181.096 37.3535 182.888 37.6901 184.694 37.6625V36.7655ZM175.622 33.0636C174.413 31.898 173.458 30.5001 172.814 28.9558C172.17 27.4115 171.852 25.7533 171.88 24.083H170.973C170.947 25.8705 171.289 27.6445 171.977 29.2972C172.666 30.9498 173.687 32.4464 174.979 33.696L175.622 33.0636ZM171.88 24.083V0.449566H170.973V24.083H171.88ZM171.428 0.896979H174.081V0H171.428V0.896979ZM173.631 0.449566V10.9531H174.538V0.449566H173.631ZM174.086 11.4005H187.343V10.5035H174.086V11.4005ZM186.908 10.9531V13.5795H187.813V10.9531H186.908ZM187.36 13.1299H174.103V14.0269H187.36V13.1299ZM173.631 13.5795V24.083H174.538V13.5795H173.631ZM173.631 24.083C173.609 25.5241 173.885 26.9545 174.442 28.2862C174.999 29.618 175.825 30.8228 176.87 31.8267L177.509 31.1943C176.548 30.2725 175.789 29.1654 175.278 27.9415C174.767 26.7175 174.515 25.4028 174.538 24.0787L173.631 24.083ZM176.87 31.8267C177.884 32.8609 179.101 33.6787 180.447 34.2299C181.792 34.7811 183.238 35.054 184.694 35.0318V34.1348C183.356 34.1575 182.028 33.9083 180.791 33.4025C179.554 32.8967 178.436 32.1452 177.504 31.1943L176.87 31.8267Z" fill="#FFFAFD"/>
<path d="M161.145 5.89196C162.153 5.89196 162.969 5.0768 162.969 4.07125C162.969 3.06571 162.153 2.25055 161.145 2.25055C160.138 2.25055 159.322 3.06571 159.322 4.07125C159.322 5.0768 160.138 5.89196 161.145 5.89196Z" fill="#FFFAFD"/>
<path d="M28.6392 24.3702V37.3169H26.0234V24.3702C26.0234 21.6259 24.9219 18.994 22.9612 17.0535C21.0006 15.113 18.3414 14.0228 15.5686 14.0228C14.1948 14.0214 12.8341 14.2881 11.5645 14.8075C10.2949 15.3269 9.1411 16.0888 8.16918 17.0498C7.19726 18.0108 6.42623 19.152 5.90017 20.408C5.37412 21.6641 5.10335 23.0105 5.10335 24.3702V34.7177L2.4792 37.3169V24.3702C2.45128 22.6694 2.77585 20.981 3.4329 19.4092C4.08994 17.8374 5.06551 16.4155 6.29938 15.2314C8.86289 12.6942 11.9498 11.4256 15.5602 11.4256C17.28 11.3999 18.9868 11.7244 20.5746 12.3792C22.1623 13.0339 23.5971 14.0047 24.7897 15.2314C26.0304 16.4119 27.0124 17.8324 27.6746 19.4046C28.3368 20.9768 28.6652 22.6671 28.6392 24.3702V24.3702ZM48.6454 34.7177C51.0639 34.7139 53.4063 33.8803 55.2735 32.359C57.1407 30.8377 58.4172 28.7227 58.8857 26.3744C59.3541 24.026 58.9854 21.5896 57.8424 19.4801C56.6995 17.3706 54.8529 15.7186 52.6173 14.8054C50.3818 13.8922 47.8954 13.7744 45.5819 14.472C43.2684 15.1696 41.2708 16.6395 39.9295 18.6312C38.5881 20.623 37.9859 23.0134 38.2255 25.3953C38.4651 27.7772 39.5316 30.0032 41.2434 31.6941C42.2025 32.6732 43.3541 33.4474 44.6272 33.9689C45.9002 34.4903 47.2678 34.748 48.6454 34.726V34.7177ZM59.1107 32.1556C58.7384 32.6288 58.3361 33.0781 57.9063 33.5008C55.3428 36.038 52.2558 37.3073 48.6454 37.3087C46.0599 37.3093 43.5322 36.5513 41.3817 35.1305C39.2313 33.7097 37.5547 31.6898 36.5638 29.3262C35.573 26.9626 35.3123 24.3612 35.8147 21.851C36.3171 19.3408 37.5602 17.0343 39.3867 15.2231C41.9502 12.6859 45.0364 11.4173 48.6454 11.4173C52.1105 11.4298 55.43 12.7976 57.8804 15.2224C60.3307 17.6472 61.7132 20.9325 61.7265 24.3619V37.3087L59.1107 34.7177V32.1556ZM72.5764 11.4173V37.3169H69.9544V11.4256L72.5764 11.4173ZM84.9444 37.3087H82.3287V1.0657L84.9444 3.65464V37.3087ZM115.495 23.0768C115.244 20.7826 114.188 18.6482 112.512 17.0442C111.127 15.6723 109.381 14.7127 107.472 14.2746C105.564 13.8365 103.569 13.9375 101.716 14.5661C99.862 15.1947 98.224 16.3257 96.988 17.8303C95.7519 19.3349 94.9675 21.1527 94.7239 23.0768H115.495ZM94.7239 25.6657C94.9711 27.5878 95.7577 29.4028 96.9944 30.9048C98.2311 32.4069 99.8684 33.5358 101.721 34.1635C103.573 34.7912 105.565 34.8925 107.473 34.4561C109.38 34.0196 111.126 33.0628 112.512 31.6941C113.519 30.7172 114.312 29.5449 114.841 28.2505H117.614C116.994 30.243 115.879 32.0497 114.37 33.505C111.807 36.0421 108.72 37.3114 105.11 37.3128C102.524 37.3138 99.9959 36.5561 97.8452 35.1355C95.6944 33.7148 94.0175 31.695 93.0264 29.3313C92.0352 26.9676 91.7743 24.3661 92.2767 21.8557C92.7791 19.3452 94.0222 17.0386 95.8488 15.2272C98.4123 12.69 101.499 11.4214 105.11 11.4214C108.574 11.4345 111.893 12.8025 114.343 15.2273C116.793 17.652 118.175 20.937 118.189 24.3661C118.189 24.7986 118.172 25.2291 118.136 25.6616L94.7239 25.6657ZM138.038 34.726C140.456 34.7241 142.799 33.8925 144.668 32.3728C146.536 30.8531 147.814 28.7394 148.285 26.3916C148.755 24.0438 148.389 21.6072 147.248 19.4968C146.107 17.3864 144.262 15.7327 142.028 14.8175C139.793 13.9022 137.307 13.782 134.993 14.4772C132.679 15.1725 130.68 16.6402 129.336 18.6305C127.993 20.6207 127.388 23.0104 127.625 25.3924C127.862 27.7744 128.926 30.0014 130.636 31.6941C131.595 32.6732 132.747 33.4474 134.02 33.9689C135.293 34.4903 136.66 34.748 138.038 34.726V34.726ZM151.119 24.3785C151.119 27.9518 149.837 31.0071 147.274 33.5443C144.821 35.9716 141.495 37.3353 138.027 37.3353C134.558 37.3353 131.232 35.9716 128.779 33.5443C126.327 31.1169 124.949 27.8247 124.949 24.392C124.949 20.9592 126.327 17.667 128.779 15.2396C131.343 12.7024 134.429 11.4338 138.038 11.4338C139.76 11.4078 141.469 11.7294 143.062 12.3791C144.654 13.0288 146.096 13.993 147.299 15.2127C147.724 15.6488 148.126 16.1068 148.503 16.5848V3.6567L151.119 1.0657V24.3785Z" fill="#FFF506"/>
<path d="M28.6393 37.317V37.7578H29.0867V37.317H28.6393ZM26.0235 37.317H25.5781V37.7578H26.0235V37.317ZM5.0951 34.726L5.41083 35.0385L5.54256 34.9102V34.726H5.0951ZM2.47931 37.317H2.03394V38.3828L2.79504 37.6274L2.47931 37.317ZM28.1897 24.3703V37.317H29.0826V24.3703H28.1897ZM28.6393 36.8679H26.0235V37.7516H28.6393V36.8679ZM26.4626 37.317V24.3703H25.5697V37.317H26.4626ZM26.4626 24.3703C26.4849 22.9489 26.2131 21.538 25.664 20.2244C25.1149 18.9107 24.3001 17.7222 23.2697 16.7318L22.6424 17.3527C23.5894 18.2611 24.3379 19.3523 24.8415 20.5587C25.345 21.7652 25.5929 23.0611 25.5697 24.3662L26.4626 24.3703ZM23.2781 16.7318C22.2774 15.712 21.0765 14.9055 19.7493 14.3621C18.4221 13.8186 16.9965 13.5496 15.5603 13.5717V14.4554C16.879 14.4325 18.1883 14.6778 19.4072 15.1762C20.6262 15.6746 21.7287 16.4154 22.6466 17.3527L23.2781 16.7318ZM15.5603 13.5717C14.1239 13.5496 12.698 13.8185 11.3704 14.362C10.0428 14.9054 8.84156 15.7119 7.84052 16.7318L8.46781 17.3527C9.38622 16.4155 10.4892 15.6748 11.7084 15.1765C12.9276 14.6781 14.2372 14.4327 15.5562 14.4554L15.5603 13.5717ZM7.84052 16.7318C6.81037 17.7223 5.99587 18.9109 5.44714 20.2245C4.8984 21.5382 4.62703 22.949 4.64972 24.3703H5.55302C5.52976 23.0652 5.77759 21.7692 6.28113 20.5628C6.78468 19.3564 7.53322 18.2652 8.48036 17.3568L7.84052 16.7318ZM4.64972 24.3703V34.7177H5.55302V24.3703H4.64972ZM4.77936 34.4156L2.16358 37.0045L2.79086 37.6254L5.40665 35.0364L4.77936 34.4156ZM2.92677 37.3129V24.3703H2.03394V37.317L2.92677 37.3129ZM2.92677 24.3662C2.92677 20.9101 4.15208 17.9756 6.61522 15.5398L5.98794 14.9189C4.71278 16.1442 3.70453 17.6148 3.02524 19.2402C2.34596 20.8657 2.01002 22.6115 2.03812 24.3703L2.92677 24.3662ZM6.61522 15.5522C9.0951 13.0978 12.0684 11.8747 15.5603 11.8747V10.9911C11.8301 10.9911 8.63787 12.3017 5.98375 14.9231L6.61522 15.5522ZM15.5603 11.8747C17.2224 11.8481 18.8721 12.1609 20.4065 12.7937C21.9409 13.4264 23.327 14.3655 24.4783 15.5522L25.1055 14.9314C23.8705 13.6633 22.3854 12.66 20.7424 11.9836C19.0993 11.3072 17.3334 10.9722 15.5541 10.9993L15.5603 11.8747ZM24.4804 15.5522C25.6786 16.6921 26.6268 18.0641 27.2657 19.5827C27.9046 21.1013 28.2205 22.7338 28.1939 24.3786H29.0867C29.1141 22.6175 28.7756 20.8697 28.0922 19.2435C27.4088 17.6174 26.3951 16.1475 25.1139 14.9252L24.4804 15.5522ZM59.1108 32.1723H59.5561V30.8851L58.7574 31.9012L59.1108 32.1723ZM61.7266 37.3253L61.4108 37.6357L62.1719 38.3911V37.3253H61.7266ZM59.1108 34.7343H58.6633V34.9185L58.795 35.0468L59.1108 34.7343ZM48.6455 35.1772C50.0821 35.1983 51.5079 34.9283 52.8352 34.3838C54.1624 33.8393 55.3631 33.0317 56.3633 32.0109L55.736 31.39C54.8173 32.3269 53.7144 33.0674 52.4952 33.5657C51.276 34.064 49.9665 34.3096 48.6476 34.2873L48.6455 35.1772ZM56.3633 32.0109C57.3935 31.02 58.208 29.831 58.7567 28.517C59.3055 27.2031 59.5768 25.7919 59.5541 24.3703H58.6633C58.6864 25.6757 58.4384 26.9719 57.9349 28.1786C57.4314 29.3854 56.683 30.477 55.736 31.3859L56.3633 32.0109ZM59.5541 24.3703C59.5768 22.949 59.3054 21.5382 58.7566 20.2245C58.2079 18.9109 57.3934 17.7223 56.3633 16.7318L55.736 17.3527C56.6831 18.261 57.4317 19.3522 57.9352 20.5587C58.4387 21.7651 58.6866 23.061 58.6633 24.3662L59.5541 24.3703ZM56.3633 16.7318C55.3622 15.7119 54.161 14.9054 52.8334 14.362C51.5058 13.8185 50.0799 13.5496 48.6435 13.5717V14.4554C49.9624 14.4327 51.272 14.6781 52.4912 15.1765C53.7104 15.6748 54.8134 16.4155 55.7318 17.3527L56.3633 16.7318ZM48.6435 13.5717C47.2073 13.5496 45.7817 13.8186 44.4545 14.3621C43.1273 14.9055 41.9264 15.712 40.9257 16.7318L41.553 17.3527C42.471 16.4156 43.5736 15.6749 44.7925 15.1765C46.0114 14.6782 47.3207 14.4327 48.6393 14.4554L48.6435 13.5717ZM40.9278 16.7318C39.8977 17.7223 39.0832 18.9109 38.5344 20.2245C37.9857 21.5382 37.7143 22.949 37.737 24.3703H38.6299C38.6066 23.0652 38.8544 21.7692 39.358 20.5628C39.8615 19.3564 40.6101 18.2652 41.5572 17.3568L40.9278 16.7318ZM37.737 24.3703C37.7143 25.7919 37.9856 27.2031 38.5344 28.517C39.0831 29.831 39.8976 31.02 40.9278 32.0109L41.5551 31.39C40.6081 30.4811 39.8597 29.3895 39.3562 28.1828C38.8526 26.976 38.6047 25.6798 38.6278 24.3744L37.737 24.3703ZM40.9278 32.0109C41.9286 33.0304 43.1295 33.8366 44.4568 34.3797C45.784 34.9228 47.2095 35.1913 48.6455 35.1689V34.2852C47.327 34.3075 46.0178 34.0619 44.799 33.5635C43.5802 33.0652 42.4775 32.3248 41.5593 31.3879L40.9278 32.0109ZM58.7574 31.8929C58.3971 32.3518 58.0074 32.7873 57.5907 33.1967L58.2179 33.8175C58.6601 33.3814 59.0742 32.9183 59.4579 32.431L58.7574 31.8929ZM57.5907 33.1967C55.1087 35.6532 52.1374 36.8679 48.6455 36.8679V37.7516C52.3758 37.7516 55.568 36.4409 58.2221 33.8196L57.5907 33.1967ZM48.6455 36.8679C46.9818 36.894 45.3303 36.5834 43.7921 35.9553C42.254 35.3272 40.8616 34.3948 39.7004 33.2153L39.0731 33.8361C40.3172 35.0971 41.8077 36.0941 43.4538 36.7662C45.0999 37.4383 46.8671 37.7715 48.6476 37.7454L48.6455 36.8679ZM39.7025 33.2174C38.511 32.068 37.5693 30.6899 36.935 29.1675C36.3008 27.6451 35.9874 26.0106 36.0141 24.3641H35.1212C35.0947 26.1261 35.4311 27.8751 36.1098 29.5043C36.7885 31.1335 37.7954 32.6088 39.069 33.8403L39.7025 33.2174ZM36.0141 24.3641C36.0141 20.908 37.2394 17.9735 39.7025 15.5377L39.0752 14.9169C37.8001 16.1421 36.7918 17.6127 36.1125 19.2382C35.4333 20.8636 35.0973 22.6095 35.1254 24.3682L36.0141 24.3641ZM39.7025 15.5522C42.1824 13.0978 45.1557 11.8747 48.6455 11.8747V10.9911C44.9174 10.9911 41.7182 12.3072 39.071 14.9231L39.7025 15.5522ZM48.6455 11.8747C50.3076 11.8477 51.9575 12.1604 53.4919 12.7932C55.0264 13.4259 56.4124 14.3652 57.5635 15.5522L58.1908 14.9314C56.956 13.663 55.4709 12.6595 53.8278 11.9831C52.1847 11.3067 50.4186 10.9718 48.6393 10.9993L48.6455 11.8747ZM57.5656 15.5522C58.7642 16.6918 59.7126 18.0638 60.3516 19.5824C60.9905 21.1011 61.3063 22.7338 61.2791 24.3786H62.1719C62.1998 22.6175 61.8616 20.8695 61.1781 19.2432C60.4947 17.617 59.4807 16.1472 58.1991 14.9252L57.5656 15.5522ZM61.2791 24.3786V37.3253H62.1719V24.3703L61.2791 24.3786ZM62.0423 37.0025L59.4265 34.4135L58.7992 35.0344L61.415 37.6233L62.0423 37.0025ZM59.5561 34.726V32.164H58.6633V34.726H59.5561ZM72.5765 11.4256H73.024V10.9828H72.5765V11.4256ZM72.5765 37.317V37.7578H73.024V37.317H72.5765ZM69.9608 37.317H69.5154V37.7578H69.9545L69.9608 37.317ZM69.9608 11.4256V10.9828H69.5154V11.4256H69.9608ZM72.1312 11.4256V37.317H73.024V11.4256H72.1312ZM72.5765 36.8804H69.9545V37.764H72.5703L72.5765 36.8804ZM70.4082 37.3232V11.4256H69.5154V37.317L70.4082 37.3232ZM69.9608 11.8685H72.5765V10.9848H69.9545L69.9608 11.8685ZM84.9446 37.3232V37.764H85.392V37.3232H84.9446ZM82.3288 37.3232H81.8834V37.764H82.3288V37.3232ZM82.3288 1.07407L82.6445 0.76157L81.8834 0.00827972V1.06579L82.3288 1.07407ZM84.9446 3.66299H85.392V3.48088L85.2603 3.3505L84.9446 3.66299ZM84.9446 36.8804H82.3288V37.764H84.9446V36.8804ZM82.7762 37.3232V1.06579H81.8834V37.317L82.7762 37.3232ZM82.013 1.38655L84.6309 3.96307L85.2582 3.34222L82.6445 0.755362L82.013 1.38655ZM84.4992 3.66299V37.317H85.392V3.65678L84.4992 3.66299ZM115.496 23.0769V23.5177H115.993L115.939 23.0272L115.496 23.0769ZM94.724 23.0769L94.2807 23.0272L94.2242 23.5177H94.724V23.0769ZM94.724 25.6658V25.2229H94.2242L94.2807 25.7134L94.724 25.6658ZM114.841 28.2547V27.8119H114.538L114.425 28.0912L114.841 28.2547ZM117.614 28.2547L118.032 28.381L118.205 27.8119H117.605L117.614 28.2547ZM118.136 25.6658V26.1066H118.555L118.588 25.6927L118.136 25.6658ZM115.939 23.0272C115.673 20.6327 114.57 18.4055 112.819 16.7318L112.192 17.3527C113.796 18.8854 114.806 20.9264 115.046 23.1203L115.939 23.0272ZM112.819 16.7318C111.818 15.712 110.618 14.9055 109.29 14.3621C107.963 13.8186 106.538 13.5496 105.101 13.5717V14.4554C106.42 14.4325 107.729 14.6778 108.948 15.1762C110.167 15.6746 111.27 16.4154 112.188 17.3527L112.819 16.7318ZM105.101 13.5717C103.665 13.5496 102.239 13.8185 100.911 14.362C99.5838 14.9054 98.3826 15.7119 97.3816 16.7318L98.0088 17.3527C98.9273 16.4155 100.03 15.6748 101.249 15.1765C102.469 14.6781 103.778 14.4327 105.097 14.4554L105.101 13.5717ZM97.3899 16.7318C95.6439 18.4075 94.5441 20.6342 94.2807 23.0272L95.1672 23.1245C95.4082 20.9308 96.4181 18.8901 98.0214 17.3568L97.3899 16.7318ZM94.724 23.5177H115.496V22.634H94.724V23.5177ZM94.2807 25.7134C94.5453 28.1066 95.6449 30.3336 97.3899 32.0109L98.0172 31.39C96.4142 29.8557 95.4044 27.8144 95.1631 25.6203L94.2807 25.7134ZM97.3899 32.0109C98.3911 33.0305 99.5924 33.8366 100.92 34.3797C102.248 34.9228 103.673 35.1914 105.11 35.1689V34.2852C103.791 34.3075 102.481 34.0619 101.262 33.5636C100.043 33.0653 98.94 32.3248 98.0214 31.3879L97.3899 32.0109ZM105.11 35.1689C106.544 35.1902 107.968 34.9211 109.294 34.378C110.62 33.8349 111.819 33.0294 112.819 32.0109L112.192 31.39C111.274 32.327 110.171 33.0676 108.952 33.566C107.733 34.0643 106.424 34.3098 105.106 34.2873L105.11 35.1689ZM112.819 32.0109C113.87 30.9915 114.696 29.7684 115.247 28.4182L114.41 28.0912C113.908 29.3288 113.153 30.4505 112.192 31.3859L112.819 32.0109ZM114.833 28.6997H117.605V27.816H114.841L114.833 28.6997ZM117.177 28.1306C116.578 30.0545 115.499 31.7982 114.04 33.2008L114.668 33.8217C116.237 32.3185 117.4 30.448 118.046 28.383L117.177 28.1306ZM114.04 33.2008C111.57 35.6552 108.593 36.8776 105.11 36.8679V37.7516C108.838 37.7516 112.039 36.4354 114.686 33.8196L114.04 33.2008ZM105.11 36.8679C103.446 36.894 101.794 36.5834 100.256 35.9553C98.7182 35.3272 97.3258 34.3948 96.1646 33.2153L95.5373 33.8361C96.7816 35.0974 98.2725 36.0945 99.919 36.7666C101.565 37.4387 103.333 37.7718 105.114 37.7454L105.11 36.8679ZM96.1646 33.2174C94.9731 32.068 94.0314 30.6899 93.3972 29.1675C92.7629 27.6451 92.4495 26.0106 92.4762 24.3641H91.5833C91.5568 26.1261 91.8932 27.8751 92.5719 29.5043C93.2506 31.1335 94.2575 32.6088 95.5311 33.8403L96.1646 33.2174ZM92.4762 24.3641C92.4762 20.908 93.7015 17.9735 96.1646 15.5377L95.5373 14.9169C94.2622 16.1421 93.2539 17.6127 92.5746 19.2382C91.8954 20.8636 91.5594 22.6095 91.5875 24.3682L92.4762 24.3641ZM96.1646 15.5522C98.6445 13.0978 101.618 11.8747 105.11 11.8747V10.9911C101.379 10.9911 98.1873 12.3017 95.5332 14.9231L96.1646 15.5522ZM105.11 11.8747C106.772 11.8481 108.422 12.1609 109.956 12.7937C111.49 13.4264 112.876 14.3655 114.028 15.5522L114.655 14.9314C113.42 13.6633 111.935 12.66 110.292 11.9836C108.649 11.3072 106.883 10.9722 105.103 10.9993L105.11 11.8747ZM114.03 15.5522C115.228 16.6921 116.176 18.0641 116.815 19.5827C117.454 21.1013 117.77 22.7338 117.743 24.3786H118.636C118.664 22.6175 118.325 20.8697 117.642 19.2435C116.958 17.6174 115.944 16.1475 114.663 14.9252L114.03 15.5522ZM117.743 24.3786C117.743 24.7925 117.726 25.2126 117.691 25.6389L118.582 25.7093C118.617 25.2664 118.636 24.8215 118.636 24.3786H117.743ZM118.136 25.2312H94.7177V26.1066H118.136V25.2312ZM148.503 16.5849L148.156 16.8477L148.955 17.8659V16.587L148.503 16.5849ZM148.503 3.66506L148.188 3.34222L148.056 3.4726V3.65472L148.503 3.66506ZM151.119 1.06579H151.565V0L150.803 0.753291L151.119 1.06579ZM138.038 35.1689C139.474 35.1914 140.9 34.9228 142.228 34.3797C143.555 33.8366 144.757 33.0305 145.758 32.0109L145.131 31.39C144.212 32.3271 143.109 33.0677 141.89 33.566C140.671 34.0644 139.361 34.3099 138.042 34.2873L138.038 35.1689ZM145.758 32.0109C146.788 31.02 147.603 29.831 148.151 28.517C148.7 27.2031 148.971 25.7919 148.949 24.3703H148.056C148.079 25.6757 147.831 26.9719 147.327 28.1786C146.824 29.3854 146.076 30.477 145.129 31.3859L145.758 32.0109ZM148.949 24.3703C148.971 22.949 148.7 21.5382 148.151 20.2245C147.603 18.9109 146.788 17.7223 145.758 16.7318L145.131 17.3527C146.078 18.261 146.826 19.3522 147.33 20.5587C147.833 21.7651 148.081 23.061 148.058 24.3662L148.949 24.3703ZM145.758 16.7318C144.757 15.7119 143.556 14.9054 142.228 14.362C140.9 13.8185 139.475 13.5496 138.038 13.5717V14.4554C139.357 14.4324 140.667 14.6778 141.886 15.1761C143.105 15.6745 144.208 16.4153 145.126 17.3527L145.758 16.7318ZM138.038 13.5717C136.602 13.5496 135.176 13.8186 133.849 14.3621C132.522 14.9055 131.321 15.712 130.32 16.7318L130.948 17.3527C131.866 16.4156 132.968 15.6749 134.187 15.1765C135.406 14.6782 136.715 14.4327 138.034 14.4554L138.038 13.5717ZM130.32 16.7318C129.29 17.7223 128.476 18.9109 127.927 20.2245C127.378 21.5382 127.107 22.949 127.13 24.3703H128.022C127.999 23.0652 128.247 21.7692 128.751 20.5628C129.254 19.3564 130.003 18.2652 130.95 17.3568L130.32 16.7318ZM127.13 24.3703C127.107 25.7919 127.378 27.2031 127.927 28.517C128.476 29.831 129.29 31.02 130.32 32.0109L130.948 31.39C130.001 30.4811 129.252 29.3895 128.749 28.1828C128.245 26.976 127.997 25.6798 128.02 24.3744L127.13 24.3703ZM130.32 32.0109C131.321 33.0304 132.522 33.8366 133.849 34.3797C135.177 34.9228 136.602 35.1913 138.038 35.1689V34.2852C136.72 34.3075 135.41 34.0619 134.192 33.5635C132.973 33.0652 131.87 32.3248 130.952 31.3879L130.32 32.0109ZM150.665 24.3703C150.665 27.8263 149.432 30.7692 146.952 33.2236L147.579 33.8444C150.226 31.2244 151.552 28.0499 151.552 24.3662L150.665 24.3703ZM146.952 33.2236C145.796 34.4013 144.409 35.3323 142.876 35.9591C141.343 36.5859 139.697 36.8952 138.038 36.8679V37.7516C139.815 37.7793 141.58 37.4468 143.222 36.7745C144.865 36.1022 146.351 35.1044 147.59 33.8423L146.952 33.2236ZM138.038 36.8679C136.374 36.894 134.723 36.5834 133.185 35.9553C131.647 35.3272 130.254 34.3948 129.093 33.2153L128.466 33.8361C129.71 35.0971 131.2 36.0941 132.846 36.7662C134.492 37.4383 136.26 37.7715 138.04 37.7454L138.038 36.8679ZM129.095 33.2174C127.904 32.068 126.962 30.6899 126.328 29.1675C125.693 27.6451 125.38 26.0106 125.407 24.3641H124.514C124.487 26.1261 124.824 27.8751 125.502 29.5043C126.181 31.1335 127.188 32.6088 128.462 33.8403L129.095 33.2174ZM125.407 24.3703C125.407 20.9142 126.632 17.9797 129.095 15.5439L128.468 14.9231C127.193 16.1483 126.184 17.619 125.505 19.2444C124.826 20.8698 124.49 22.6157 124.518 24.3744L125.407 24.3703ZM129.095 15.5522C131.575 13.0978 134.548 11.8747 138.038 11.8747V10.9911C134.31 10.9911 131.109 12.3072 128.464 14.9231L129.095 15.5522ZM138.038 11.8747C139.702 11.8487 141.354 12.1592 142.893 12.7873C144.431 13.4154 145.824 14.3478 146.985 15.5274L147.613 14.9065C146.368 13.6453 144.877 12.6482 143.231 11.976C141.584 11.3039 139.817 10.9709 138.036 10.9973L138.038 11.8747ZM146.977 15.5191C147.392 15.9439 147.783 16.3901 148.15 16.856L148.855 16.3138C148.469 15.8236 148.057 15.3539 147.621 14.9065L146.977 15.5191ZM148.949 16.5849V3.65678H148.056V16.587L148.949 16.5849ZM148.819 3.96307L151.435 1.37414L150.808 0.753291L148.188 3.34222L148.819 3.96307ZM150.665 1.06579V24.3682H151.558V1.06579H150.665Z" fill="#FFF506"/>
<path d="M71.2697 7.16217C72.2386 7.16217 73.024 6.37792 73.024 5.41049C73.024 4.44307 72.2386 3.65881 71.2697 3.65881C70.3008 3.65881 69.5154 4.44307 69.5154 5.41049C69.5154 6.37792 70.3008 7.16217 71.2697 7.16217Z" fill="#FFF506"/>
</svg>
